<svg width="200" height="200" viewBox="0 0 200 200" fill="none" xmlns="http://www.w3.org/2000/svg">
<path d="M79.7438 144.478C79.7438 155.621 88.8669 164.734 100.01 164.734C111.153 164.734 120.266 155.621 120.266 144.478V136.645C120.286 133.197 122.591 130.044 126.562 127.365L127.478 126.773C141.044 117.837 150 102.468 150 85C150 57.3842 127.616 35 100 35C72.3842 35 50 57.3842 50 85C50 102.488 59.0936 118.143 72.7783 126.951V118.35C62.8177 110.222 56.9556 98.0443 56.9556 85C56.9556 61.2266 76.2266 41.9557 100 41.9557C123.773 41.9557 143.044 61.2266 143.044 85C143.044 99.5123 135.793 112.931 123.734 120.921L122.68 121.601C117.517 125.069 113.34 130.103 113.31 136.606C113.31 136.695 113.31 136.783 113.31 136.882V143.414H79.7438V144.478Z" fill="black"/>
<path d="M118.794 115.828L119.888 115.119C120.016 115.04 120.134 114.951 120.262 114.863V71.8379H112.548L100.006 91.3355L87.4642 71.8379H79.75L79.75 136.222H100.016V129.04H86.7253C86.7647 111.335 86.9422 101.424 86.9422 83.6211L99.8387 102.941H100.075L113.09 83.5029L113.09 120.626C114.775 118.833 116.716 117.227 118.804 115.818L118.794 115.828Z" fill="black"/>
</svg>
